<svg width="676" height="677" viewBox="0 0 676 677" fill="none" xmlns="http://www.w3.org/2000/svg">
<g clip-path="url(#clip0_1_37)">
<path d="M676 338.5C676.042 375.46 670.012 412.175 658.15 447.18C657.47 449.18 656.773 451.173 656.06 453.16C643.499 487.897 625.335 520.343 602.29 549.21C595.41 557.84 588.12 566.113 580.42 574.03C572.72 581.96 564.637 589.503 556.17 596.66C508.944 636.709 451.575 662.94 390.39 672.46H390.38C382.58 673.67 374.703 674.613 366.75 675.29C357.28 676.09 347.697 676.493 338 676.5C292.907 676.559 248.261 667.566 206.708 650.053C165.154 632.541 127.539 606.866 96.09 574.55C93.88 572.29 91.7033 569.997 89.56 567.67C84.22 561.88 79.0833 555.91 74.15 549.76C71.38 546.3 68.6767 542.787 66.04 539.22C49.799 517.279 36.2865 493.444 25.8 468.24C21.328 457.506 17.4226 446.544 14.1 435.4C13.86 434.61 13.63 433.82 13.4 433.03C12.9 431.33 12.4167 429.62 11.95 427.9C3.99515 398.767 -0.0238864 368.7 1.44216e-05 338.5C1.44216e-05 151.83 151.33 0.5 338 0.5C524.67 0.5 676 151.83 676 338.5Z" fill="#E1E6FE"/>
<path d="M143.348 202.532C142.825 205.709 143.004 208.962 143.874 212.063C144.744 215.163 146.284 218.035 148.384 220.476C150.484 222.917 153.093 224.867 156.029 226.191C158.964 227.514 162.154 228.178 165.374 228.135L219.328 385.128L253.755 361.468L187.296 204.23C186.866 198.826 184.468 193.768 180.557 190.014C176.646 186.259 171.494 184.07 166.077 183.861C160.659 183.651 155.354 185.436 151.164 188.878C146.975 192.319 144.194 197.177 143.348 202.532Z" fill="#A0616A"/>
<path d="M424.955 255.65C400.995 282.91 341.915 330.95 293.245 364.03C282.725 371.18 272.685 377.62 263.595 383.01C257.455 386.65 251.745 389.8 246.605 392.37C243.156 394.089 239.388 395.076 235.539 395.271C231.69 395.466 227.842 394.864 224.236 393.503C220.63 392.142 217.344 390.051 214.584 387.361C211.824 384.671 209.649 381.44 208.195 377.87L174.495 296.34L186.155 288.61L214.905 269.54L221.435 265.22L248.395 329.43L276.825 306.61L294.475 292.44L374.935 227.87L381.875 225.81L398.065 241.61L409.515 252.79L420.285 254.66C421.895 254.94 423.455 255.27 424.955 255.65Z" fill="#8767F3"/>
<path d="M639.92 479.662C641.59 481.782 643.32 483.892 645.05 486.012C639.091 498.249 632.392 510.111 624.99 521.532C624.44 521.142 623.89 520.752 623.34 520.362C623.253 520.315 623.17 520.261 623.09 520.202C621.04 518.742 618.98 517.302 616.93 515.842V515.832C615.239 510.077 614.294 504.128 614.12 498.132C615.177 497.89 616.134 497.328 616.862 496.523C617.589 495.718 618.051 494.709 618.185 493.633C618.32 492.556 618.12 491.465 617.612 490.506C617.105 489.547 616.315 488.767 615.35 488.272C615.08 487.802 614.89 487.462 614.62 486.982C614.63 486.862 614.65 486.732 614.66 486.612C616.23 474.122 632.15 469.762 639.92 479.662Z" fill="white"/>
<path d="M657.87 436.862C659.07 440.162 660.163 443.499 661.15 446.872C660.47 448.872 659.773 450.866 659.06 452.852C658.79 451.802 658.51 450.752 658.22 449.702C656.593 443.864 654.64 438.122 652.37 432.502C650.51 427.892 648.45 423.379 646.19 418.962C633.901 394.968 616.093 374.234 594.23 358.462C585.195 356.373 577.017 351.563 570.8 344.682C568.557 342.21 566.682 339.428 565.23 336.422C566.15 336.292 567.07 336.112 567.97 335.922C568.25 335.862 568.54 335.792 568.82 335.732L568.93 335.712C569.914 335.484 570.811 334.977 571.513 334.251C572.215 333.525 572.693 332.611 572.888 331.621C573.084 330.63 572.989 329.603 572.615 328.665C572.241 327.727 571.604 326.917 570.78 326.332C570.27 325.962 569.75 325.602 569.24 325.242C568.46 324.672 567.67 324.132 566.88 323.572C566.797 323.52 566.717 323.464 566.64 323.402C565.74 322.762 564.84 322.142 563.95 321.492C564.64 319.264 565.835 317.225 567.44 315.532C573.03 309.762 583.01 309.892 589.53 314.592C596.06 319.292 599.34 327.522 599.76 335.542C600.13 342.412 598.65 349.212 596.7 355.842C597.19 356.202 597.7 356.542 598.19 356.912C607.193 363.585 615.519 371.124 623.05 379.422C618.7 369.102 617.12 355.642 618.25 346.372C619.54 335.812 624.67 325.782 628.87 315.792C633.9 303.792 651.06 303.632 655.9 315.712C655.95 315.832 656 315.942 656.04 316.062C655.23 316.872 654.45 317.712 653.7 318.582C652.758 319.679 652.17 321.034 652.011 322.47C651.852 323.906 652.131 325.357 652.811 326.633C653.491 327.908 654.54 328.948 655.821 329.617C657.102 330.286 658.555 330.553 659.99 330.382L660.14 330.362C660.764 333.927 661.118 337.534 661.2 341.152C661.324 351.275 659.356 361.314 655.419 370.641C651.482 379.968 645.66 388.381 638.32 395.352C637.84 395.802 637.37 396.242 636.88 396.672C641.513 403.26 645.673 410.167 649.33 417.342C652.576 423.667 655.428 430.186 657.87 436.862Z" fill="white"/>
<path d="M465.185 343.05L462.165 550.46L218.205 543.46L257.165 457.46C256.885 454.7 274.265 435.33 274.165 432.46C273.865 424.05 280.145 416.26 281.165 407.46C283.245 389.31 271.335 320.77 276.825 306.61C279.164 300.287 282.161 294.227 285.765 288.53C288.885 283.81 292.085 280.63 295.145 279.48L304.165 258.46L312.165 246.46L374.935 227.87L381.875 225.81L398.065 241.61L409.515 252.79L420.285 254.66C421.895 254.94 423.455 255.27 424.955 255.65C432.18 257.316 438.913 260.652 444.615 265.39C463.415 281.36 465.605 311.4 465.185 343.05Z" fill="#8767F3"/>
<path d="M605.29 548.902C598.41 557.532 591.12 565.806 583.42 573.722L557.04 573.742L415.17 573.902L389.63 573.932L372.65 573.952L347.39 573.972L327.96 573.992L292.07 574.032L270.9 574.062L226.32 574.102L205.04 574.132L146.07 574.192L109.03 574.232L99.09 574.242C96.88 571.982 94.7033 569.689 92.56 567.362C87.22 561.572 82.0833 555.602 77.15 549.452L97.73 549.432L111.75 549.422L144.21 549.382L206.85 549.322L228.02 549.302L236.58 549.292H236.61L243.33 549.282L246.34 549.272L254.05 549.262H257.31L280.17 549.242L329.48 549.182L351.18 549.162L371.96 549.142L391.44 549.122L419.39 549.092L568.67 548.942L605.29 548.902Z" fill="#CCCCCC"/>
<path d="M267.766 237.472L267.711 237.477C264.827 237.746 261.953 236.857 259.724 235.007C257.494 233.157 256.09 230.497 255.822 227.612L250.135 166.912C249.106 156.039 250.273 145.069 253.568 134.655C260.027 114.33 274.08 97.2823 292.798 87.0634C302.463 81.8009 313.094 78.5498 324.049 77.5061C368.869 73.2361 385.248 82.5706 412.934 150.927C440.62 219.284 418.629 211.719 418.629 211.719C418.768 213.182 418.611 214.658 418.167 216.059C417.295 218.792 415.402 221.082 412.881 222.452C411.588 223.153 410.167 223.587 408.703 223.729C355.716 237.197 302.251 251.374 267.757 237.473L267.766 237.472Z" fill="#2F2E41"/>
<path d="M366.387 135.021C373.039 144.862 376.625 156.453 376.692 168.331C376.759 180.209 373.305 191.84 366.766 201.756C360.227 211.672 350.896 219.428 339.951 224.044C329.007 228.66 316.94 229.929 305.275 227.691C297.553 226.235 290.196 223.261 283.632 218.941C277.068 214.621 271.426 209.042 267.033 202.526C260.396 192.688 256.82 181.105 256.756 169.238C256.693 157.371 260.144 145.75 266.675 135.842C273.207 125.933 282.526 118.18 293.457 113.561C304.388 108.941 316.443 107.661 328.101 109.883C335.829 111.33 343.193 114.298 349.765 118.614C356.337 122.929 361.988 128.507 366.388 135.023L366.387 135.021Z" fill="#9E616A"/>
<path d="M231.346 173.656C230.532 165.056 231.456 156.38 234.062 148.144C234.666 127.997 240.511 109.748 265.084 110.514C272.68 106.382 281.03 103.82 289.636 102.981L301.779 101.781C301.916 101.768 302.052 101.755 302.189 101.742C310.602 100.959 319.086 101.841 327.159 104.337C335.231 106.833 342.732 110.895 349.235 116.29C355.738 121.685 361.114 128.308 365.057 135.781C369 143.254 371.432 151.431 372.215 159.844L372.329 161.06L346.638 163.571L335.581 139.909L336.126 164.604L322.857 165.906L317.281 153.968L317.554 166.419C297.852 183.77 267.977 184.68 231.471 174.873L231.346 173.656Z" fill="#2F2E41"/>
<path d="M313.525 231.255C313.306 233.255 313.653 235.276 314.527 237.089C314.967 238.017 315.534 238.879 316.214 239.65C316.795 240.306 317.452 240.892 318.17 241.394C320.299 242.876 322.885 243.551 325.466 243.298C325.627 243.281 325.787 243.261 325.948 243.239C326.108 243.216 326.268 243.19 326.427 243.16C326.588 243.131 326.748 243.098 326.907 243.06C327.066 243.023 327.225 242.982 327.385 242.938L336.351 240.426L346.4 212.406L348.704 236.993L389.477 225.641L379.702 121.306L310.207 128.154L312.113 129.989C318.446 136.153 322.955 143.944 325.145 152.506C327.318 161.181 327.989 170.165 327.128 179.068C326.324 188.069 324.657 196.973 322.151 205.656C319.97 213.345 317.347 220.902 314.296 228.289C313.902 229.237 313.642 230.235 313.525 231.255Z" fill="#2F2E41"/>
<path d="M322.792 560.209C321.597 560.208 320.417 559.941 319.338 559.428L126.818 564.34C125.341 563.64 124.111 562.509 123.29 561.095C122.469 559.681 122.096 558.052 122.221 556.422C122.346 554.792 122.962 553.238 123.988 551.966C125.014 550.694 126.402 549.762 127.968 549.295L253.92 511.74C255.225 511.351 256.606 511.299 257.936 511.586L452.762 535.333C454.486 535.705 456.041 536.632 457.189 537.971C458.337 539.31 459.016 540.988 459.12 542.749C459.225 544.51 458.751 546.256 457.771 547.722C456.79 549.188 455.356 550.293 453.689 550.868L325.43 559.765C324.581 560.058 323.69 560.208 322.792 560.209Z" fill="#3F3D56"/>
<path d="M329.872 546.807C329.003 546.808 328.148 546.585 327.389 546.161L171.035 553.466C170.147 552.968 169.43 552.214 168.977 551.302C168.523 550.391 168.355 549.364 168.493 548.356C168.632 547.347 169.071 546.404 169.753 545.648C170.435 544.893 171.329 544.36 172.319 544.12L228.922 530.381C229.806 530.168 230.73 530.195 231.6 530.46L376.953 530.285C377.988 530.602 378.894 531.242 379.539 532.111C380.184 532.979 380.534 534.032 380.538 535.114C380.542 536.196 380.199 537.251 379.56 538.125C378.921 538.998 378.02 539.644 376.987 539.968L331.385 546.576C330.895 546.73 330.385 546.807 329.872 546.807Z" fill="#2F2E41"/>
<path d="M313.415 538.474C316.121 540.218 319.177 541.349 322.367 541.785C325.558 542.221 328.805 541.952 331.88 540.997C334.955 540.042 337.784 538.425 340.166 536.259C342.549 534.093 344.427 531.431 345.67 528.46L511.165 541.46L503.165 500.46L332.468 498.834C327.339 497.077 321.744 497.263 316.743 499.357C311.742 501.45 307.683 505.305 305.335 510.191C302.986 515.077 302.511 520.655 304.001 525.868C305.49 531.08 308.84 535.566 313.415 538.474Z" fill="#A0616A"/>
<path d="M411.165 271.46C411.165 271.46 436.165 251.46 466.165 287.46C486.397 311.738 525.425 458.504 528.661 519.322C528.865 523.171 528.273 527.02 526.92 530.629C525.568 534.237 523.484 537.528 520.801 540.294C518.117 543.059 514.891 545.241 511.325 546.702C507.758 548.163 503.929 548.871 500.076 548.783L411.865 547.248L402.001 491.798L471.645 492.622L411.165 271.46Z" fill="#8767F3"/>
<path d="M312.084 560.232C309.058 560.229 306.063 559.623 303.274 558.448L124.832 562.519C120.122 560.555 116.213 557.06 113.736 552.599C111.259 548.139 110.358 542.973 111.181 537.937L104.55 381.225C105.43 375.628 108.376 370.563 112.807 367.032C117.238 363.501 122.833 361.759 128.485 362.152L294.148 369.023C297.328 369.231 300.429 370.106 303.249 371.59C306.069 373.074 308.546 375.134 310.519 377.637C312.492 380.139 313.916 383.029 314.701 386.118C315.485 389.207 315.611 392.426 315.071 395.566L334.48 541.335C333.568 546.617 330.821 551.407 326.725 554.863C322.628 558.32 317.444 560.221 312.084 560.232Z" fill="#3F3D56"/>
<path d="M176.585 93.6699L102.115 93.4599C100.119 93.4575 98.2035 94.2467 96.7882 95.6545C95.3729 97.0623 94.5736 98.9737 94.5653 100.97L94.2953 199.58C94.2911 201.574 95.0787 203.488 96.4849 204.902C97.8912 206.316 99.8012 207.114 101.795 207.12L143.105 207.24L176.275 207.33C178.271 207.334 180.186 206.544 181.6 205.136C183.014 203.728 183.811 201.816 183.815 199.82L183.835 193.99L184.095 101.22C184.099 99.2232 183.311 97.3066 181.903 95.8909C180.494 94.4753 178.582 93.6765 176.585 93.6699Z" fill="#E6E6E6"/>
<path d="M171.335 99.5599L107.335 99.3799C105.466 99.3776 103.673 100.116 102.348 101.434C101.022 102.752 100.274 104.541 100.265 106.41L100.085 169.81C100.073 178.136 103.363 186.127 109.235 192.03C115.106 197.934 123.079 201.267 131.405 201.3L143.565 201.33L171.055 201.41C172.925 201.414 174.719 200.676 176.045 199.358C177.371 198.04 178.119 196.249 178.125 194.38L178.145 188L178.365 106.63C178.369 104.761 177.631 102.966 176.313 101.64C174.995 100.315 173.205 99.5665 171.335 99.5599Z" fill="white"/>
<path d="M164.145 142.88H114.245C113.852 142.88 113.463 142.957 113.099 143.108C112.736 143.258 112.406 143.479 112.128 143.757C111.849 144.035 111.629 144.365 111.478 144.729C111.328 145.092 111.25 145.482 111.25 145.875C111.25 146.268 111.328 146.658 111.478 147.021C111.629 147.384 111.849 147.715 112.128 147.993C112.406 148.271 112.736 148.491 113.099 148.642C113.463 148.792 113.852 148.87 114.245 148.87H164.145C164.94 148.87 165.701 148.554 166.263 147.993C166.825 147.431 167.14 146.669 167.14 145.875C167.14 145.081 166.825 144.319 166.263 143.757C165.701 143.195 164.94 142.88 164.145 142.88Z" fill="#8767F3"/>
<path d="M125.215 126.46H114.245C113.451 126.46 112.689 126.776 112.128 127.337C111.566 127.899 111.25 128.661 111.25 129.455C111.25 130.249 111.566 131.011 112.128 131.573C112.689 132.134 113.451 132.45 114.245 132.45H125.215C126.01 132.45 126.771 132.134 127.333 131.573C127.895 131.011 128.21 130.249 128.21 129.455C128.21 128.661 127.895 127.899 127.333 127.337C126.771 126.776 126.01 126.46 125.215 126.46Z" fill="#8767F3"/>
<path d="M164.145 169.21H114.245C113.451 169.21 112.689 169.526 112.128 170.087C111.566 170.649 111.25 171.411 111.25 172.205C111.25 172.999 111.566 173.761 112.128 174.323C112.689 174.884 113.451 175.2 114.245 175.2H164.145C164.94 175.2 165.701 174.884 166.263 174.323C166.825 173.761 167.14 172.999 167.14 172.205C167.14 171.411 166.825 170.649 166.263 170.087C165.701 169.526 164.94 169.21 164.145 169.21Z" fill="#8767F3"/>
<path d="M164.145 156.05H114.245C113.452 156.05 112.692 156.365 112.131 156.926C111.57 157.486 111.255 158.247 111.255 159.04C111.255 159.833 111.57 160.593 112.131 161.154C112.692 161.715 113.452 162.03 114.245 162.03H164.145C164.938 162.03 165.699 161.715 166.26 161.154C166.82 160.593 167.135 159.833 167.135 159.04C167.135 158.247 166.82 157.486 166.26 156.926C165.699 156.365 164.938 156.05 164.145 156.05Z" fill="#8767F3"/>
<path d="M154.449 137.05C150.945 137.05 147.52 136.011 144.606 134.065C141.693 132.118 139.422 129.351 138.081 126.114C136.74 122.877 136.389 119.314 137.073 115.878C137.757 112.441 139.444 109.284 141.922 106.807C144.399 104.329 147.556 102.642 150.993 101.958C154.429 101.274 157.992 101.625 161.229 102.966C164.466 104.307 167.233 106.578 169.18 109.491C171.126 112.405 172.165 115.83 172.165 119.334C172.16 124.031 170.292 128.534 166.97 131.855C163.649 135.177 159.146 137.045 154.449 137.05ZM154.449 102.849C151.189 102.849 148.001 103.816 145.29 105.627C142.579 107.438 140.466 110.013 139.219 113.025C137.971 116.038 137.644 119.352 138.28 122.55C138.917 125.748 140.487 128.685 142.792 130.991C145.098 133.296 148.035 134.866 151.233 135.502C154.431 136.139 157.745 135.812 160.758 134.564C163.77 133.317 166.344 131.204 168.156 128.493C169.967 125.782 170.934 122.594 170.934 119.334C170.929 114.963 169.191 110.773 166.1 107.683C163.01 104.592 158.82 102.854 154.449 102.849Z" fill="#8767F3"/>
<path d="M161.889 126.196C160.666 119.878 158.117 113.891 154.411 108.63C154.328 108.494 154.21 108.381 154.071 108.303C153.931 108.225 153.774 108.184 153.614 108.184C153.454 108.184 153.297 108.225 153.157 108.303C153.017 108.381 152.9 108.494 152.817 108.63C149.589 114.275 147.526 120.51 146.75 126.966C146.606 128.143 148.454 128.132 148.597 126.966C148.856 124.874 149.261 122.802 149.807 120.766C149.878 120.752 149.947 120.731 150.013 120.703C152.469 119.47 155.243 119.018 157.963 119.408C157.987 119.412 158.01 119.406 158.033 119.409C158.932 121.771 159.626 124.206 160.109 126.687C160.334 127.853 162.114 127.359 161.889 126.196ZM150.472 118.501C151.32 115.871 152.399 113.322 153.697 110.883C155.07 112.982 156.263 115.194 157.262 117.495C154.952 117.321 152.632 117.665 150.472 118.501Z" fill="#8767F3"/>
</g>
<defs>
<clipPath id="clip0_1_37">
<rect width="676" height="676" fill="white" transform="translate(0 0.5)"/>
</clipPath>
</defs>
</svg>