<?xml version="1.0" standalone="no"?>
<!DOCTYPE svg PUBLIC "-//W3C//DTD SVG 20010904//EN"
 "http://www.w3.org/TR/2001/REC-SVG-20010904/DTD/svg10.dtd">
<svg version="1.0" xmlns="http://www.w3.org/2000/svg"
 width="500.000000pt" height="500.000000pt" viewBox="0 0 500.000000 500.000000"
 preserveAspectRatio="xMidYMid meet">

<g transform="translate(0.000000,500.000000) scale(0.100000,-0.100000)"
fill="#000" stroke="none">
<path d="M980 3660 c-64 -11 -205 -79 -275 -133 -76 -59 -192 -170 -232 -222
-44 -58 -91 -162 -104 -228 -10 -47 -9 -69 5 -125 29 -119 77 -183 356 -476
200 -210 286 -315 348 -425 30 -54 36 -76 40 -142 4 -70 2 -82 -24 -134 -57
-113 -189 -195 -325 -203 -107 -6 -199 12 -296 59 -65 32 -90 51 -121 92 -63
83 -66 91 -66 222 -1 118 0 122 33 188 46 91 107 147 160 147 31 0 44 -6 60
-27 30 -37 35 -65 18 -105 -22 -51 -86 -75 -156 -58 -52 12 -71 8 -71 -15 0
-35 129 -46 188 -16 46 24 67 46 87 95 15 36 15 42 1 81 -23 60 -54 84 -114
92 -66 8 -128 -22 -184 -88 -23 -27 -44 -49 -49 -49 -4 0 -37 18 -74 41 -65
39 -101 45 -89 15 3 -9 22 -25 42 -37 42 -25 82 -59 82 -69 0 -4 -23 -38 -52
-76 -58 -78 -80 -128 -98 -227 -24 -133 7 -243 94 -330 58 -58 82 -70 180 -97
82 -22 256 -28 311 -11 100 31 145 55 306 162 51 34 189 176 255 264 63 83
109 235 102 339 -10 152 -103 281 -411 575 -274 259 -329 336 -335 468 -4 60
0 79 19 118 47 93 130 138 254 137 67 0 90 -4 132 -25 87 -45 140 -125 174
-264 12 -51 27 -93 33 -93 10 0 45 35 200 205 115 126 118 129 110 149 -9 23
-28 20 -62 -9 -17 -14 -36 -25 -44 -25 -7 0 -26 29 -42 65 -44 101 -139 172
-261 194 -32 6 -59 10 -59 10 -1 -1 -21 -5 -46 -9z"/>
<path d="M3240 3642 c-173 -64 -282 -208 -305 -402 -5 -41 -1 -79 14 -143 26
-111 39 -134 109 -205 50 -51 66 -61 132 -80 88 -26 128 -28 136 -7 8 21 -14
45 -41 45 -54 0 -155 41 -190 77 -108 111 -125 324 -34 427 43 49 121 86 183
86 115 0 213 -47 306 -146 l52 -55 -6 -57 c-3 -31 -8 -97 -11 -147 -3 -49 -10
-160 -16 -245 -6 -85 -12 -189 -14 -230 -24 -692 -68 -874 -230 -951 -79 -37
-161 -19 -228 50 -61 63 -82 128 -81 251 0 134 43 253 125 350 44 53 47 65 19
80 -17 9 -25 6 -51 -22 -29 -32 -109 -144 -109 -154 0 -3 -9 -25 -20 -49 -28
-61 -61 -206 -67 -295 -8 -111 11 -241 46 -316 59 -125 163 -204 270 -204 117
0 190 44 257 153 68 110 87 216 109 597 8 146 17 299 19 340 3 41 8 138 12
215 3 77 8 142 9 145 2 3 6 77 10 165 3 88 8 168 11 178 7 24 29 21 46 -5 21
-34 103 -233 127 -308 34 -105 54 -298 46 -420 -5 -58 -8 -145 -9 -195 -1 -81
2 -96 29 -149 36 -70 72 -96 135 -96 54 0 70 13 70 56 0 41 -17 54 -85 63 -76
10 -88 25 -89 104 -1 57 4 74 42 148 40 77 68 125 127 219 12 19 68 114 125
210 155 264 284 460 302 460 7 0 7 -4 0 -13 -22 -27 -109 -251 -150 -387 -30
-100 -90 -357 -101 -435 -6 -38 -15 -102 -21 -142 -5 -39 -10 -136 -10 -215 0
-300 56 -477 179 -563 39 -27 50 -30 121 -29 65 1 86 5 123 27 64 38 124 110
163 195 46 100 61 161 43 173 -30 19 -47 9 -65 -37 -30 -78 -48 -94 -106 -94
-48 0 -55 3 -92 43 -206 217 -168 1130 66 1614 56 115 96 154 186 183 85 26
105 51 82 95 -36 67 -112 34 -247 -109 -168 -178 -386 -478 -545 -751 -81
-139 -106 -175 -119 -175 -5 0 -9 56 -9 129 0 187 -27 348 -88 521 -75 214
-230 375 -414 431 -80 24 -214 24 -278 1z"/>
<path d="M2410 3621 c-85 -13 -220 -101 -341 -223 -222 -223 -392 -582 -439
-923 -61 -452 -12 -779 144 -943 98 -104 179 -142 303 -142 130 0 237 62 414
242 113 114 141 157 119 183 -21 25 -34 18 -93 -55 -71 -87 -89 -99 -172 -111
-86 -14 -163 6 -252 63 -158 102 -240 265 -283 568 -18 126 -22 181 -17 295 6
150 13 188 59 334 109 345 339 543 553 476 31 -10 71 -28 89 -40 41 -27 75
-91 83 -154 3 -28 12 -56 20 -62 17 -15 37 3 134 117 76 89 81 107 54 184 -48
136 -207 217 -375 191z"/>
</g>
</svg>